<svg width="288" height="238" viewBox="0 0 288 238" fill="none" xmlns="http://www.w3.org/2000/svg">
<path d="M159.338 7L49.3379 26.5L107.838 99.5C171.813 97.7721 200.522 91.1858 240.838 61L159.338 7Z" fill="#EDF2FF" stroke="#3B5BDB" stroke-width="13" stroke-linejoin="round"/>
<path d="M277.338 147L241.338 62C200.955 90.5302 171.977 98.5244 109.338 99L89.8379 231.5L270.838 177C281.838 171.5 282.876 160.898 277.338 147Z" fill="#91A7FF" stroke="#3B5BDB" stroke-width="13" stroke-linejoin="round"/>
<path d="M109.838 100L48.3378 27.5L9.83776 117.5C5.45156 129.056 5.92559 135.311 12.8378 146L73.8378 223.5C80.4244 229.344 85.0194 232.178 90.8379 230.5L109.838 100Z" fill="#3B5BDB" stroke="#3B5BDB" stroke-width="13" stroke-linejoin="round"/>
<path d="M163.241 68.5774L151.953 55.2025L135.903 58.3042L147.191 71.6791L132.594 74.5L102.838 39.2435L117.435 36.4226L128.291 49.2851L144.341 46.1834L133.485 33.3209L148.082 30.5L177.838 65.7565L163.241 68.5774Z" fill="#4C6EF5"/>
</svg>
