<svg width="234" height="48" viewBox="0 0 234 48" fill="none" xmlns="http://www.w3.org/2000/svg">
<path d="M64.8333 37V10.3333H69.6667V21.5833C70.2593 20.9907 70.9352 20.5463 71.6944 20.25C72.4722 19.9352 73.2963 19.7778 74.1667 19.7778C75.3519 19.7778 76.4537 20.0648 77.4722 20.6389C78.5093 21.1944 79.3426 22.0185 79.9722 23.1111C80.6204 24.1852 80.9444 25.4907 80.9444 27.0278V37H76.1111V27.6667C76.1111 26.7407 75.8333 25.9167 75.2778 25.1944C74.7222 24.4722 73.9259 24.1111 72.8889 24.1111C72.0556 24.1111 71.3056 24.3981 70.6389 24.9722C69.9907 25.5278 69.6667 26.4074 69.6667 27.6111V37H64.8333ZM91.7865 37.4444C90.2494 37.4444 88.8513 37.0463 87.592 36.25C86.3328 35.4537 85.3235 34.3981 84.5642 33.0833C83.8235 31.75 83.4531 30.2778 83.4531 28.6667C83.4531 27.0556 83.8235 25.5833 84.5642 24.25C85.3235 22.9167 86.3328 21.8611 87.592 21.0833C88.8513 20.287 90.2494 19.8889 91.7865 19.8889C92.8605 19.8889 93.842 20.0833 94.7309 20.4722C95.6198 20.8426 96.3791 21.3611 97.0087 22.0278V20.3333H101.175V37H97.0087V35.3056C96.3791 35.9722 95.6198 36.5 94.7309 36.8889C93.842 37.2593 92.8605 37.4444 91.7865 37.4444ZM92.3698 33.1944C93.1846 33.1944 93.9253 32.9907 94.592 32.5833C95.2587 32.1759 95.7865 31.6296 96.1753 30.9444C96.5828 30.2593 96.7865 29.5 96.7865 28.6667C96.7865 27.8333 96.5828 27.0741 96.1753 26.3889C95.7865 25.7037 95.2587 25.1574 94.592 24.75C93.9253 24.3426 93.1846 24.1389 92.3698 24.1389C91.555 24.1389 90.8142 24.3426 90.1476 24.75C89.4809 25.1574 88.9439 25.7037 88.5365 26.3889C88.1476 27.0741 87.9531 27.8333 87.9531 28.6667C87.9531 29.5 88.1476 30.2593 88.5365 30.9444C88.9439 31.6296 89.4809 32.1759 90.1476 32.5833C90.8142 32.9907 91.555 33.1944 92.3698 33.1944ZM112.306 37.8333L103.167 20.3333H108.528L111.139 25.6944C111.38 26.1574 111.602 26.6204 111.806 27.0833C112.009 27.5278 112.213 28.037 112.417 28.6111C112.62 28.037 112.824 27.5278 113.028 27.0833C113.231 26.6204 113.454 26.1574 113.694 25.6944L116.306 20.3333H121.444L112.306 37.8333ZM131.246 37.5556C129.375 37.5556 127.727 37.1667 126.301 36.3889C124.875 35.6111 123.764 34.5463 122.968 33.1944C122.172 31.8241 121.773 30.2593 121.773 28.5C121.773 26.8148 122.162 25.3241 122.94 24.0278C123.718 22.713 124.764 21.6759 126.079 20.9167C127.412 20.1574 128.885 19.7778 130.496 19.7778C132.144 19.7778 133.616 20.1574 134.912 20.9167C136.209 21.6574 137.227 22.6759 137.968 23.9722C138.727 25.2685 139.107 26.7407 139.107 28.3889V30.0833H128.94C128.477 30.0833 128.033 30.0556 127.607 30C127.181 29.9444 126.755 29.8796 126.329 29.8056C126.551 30.9167 127.098 31.8241 127.968 32.5278C128.857 33.213 129.986 33.5556 131.357 33.5556C132.412 33.5556 133.357 33.3426 134.19 32.9167C135.042 32.4907 135.736 31.963 136.273 31.3333L137.329 35.6667C136.496 36.2963 135.551 36.7685 134.496 37.0833C133.459 37.3981 132.375 37.5556 131.246 37.5556ZM126.218 26.8889C127.144 26.6852 128.051 26.5833 128.94 26.5833H131.885C132.403 26.5833 132.894 26.6019 133.357 26.6389C133.82 26.6759 134.255 26.7407 134.662 26.8333C134.385 25.8333 133.875 25.0463 133.135 24.4722C132.412 23.8981 131.514 23.6111 130.44 23.6111C129.422 23.6111 128.533 23.9074 127.773 24.5C127.033 25.0741 126.514 25.8704 126.218 26.8889ZM157.607 37.4444C156.07 37.4444 154.672 37.0463 153.412 36.25C152.153 35.4537 151.144 34.3981 150.385 33.0833C149.644 31.75 149.273 30.2778 149.273 28.6667C149.273 27.0556 149.644 25.5833 150.385 24.25C151.144 22.9167 152.153 21.8611 153.412 21.0833C154.672 20.287 156.07 19.8889 157.607 19.8889C158.681 19.8889 159.662 20.0833 160.551 20.4722C161.44 20.8426 162.199 21.3611 162.829 22.0278V20.3333H166.996V37H162.829V35.3056C162.199 35.9722 161.44 36.5 160.551 36.8889C159.662 37.2593 158.681 37.4444 157.607 37.4444ZM158.19 33.1944C159.005 33.1944 159.746 32.9907 160.412 32.5833C161.079 32.1759 161.607 31.6296 161.996 30.9444C162.403 30.2593 162.607 29.5 162.607 28.6667C162.607 27.8333 162.403 27.0741 161.996 26.3889C161.607 25.7037 161.079 25.1574 160.412 24.75C159.746 24.3426 159.005 24.1389 158.19 24.1389C157.375 24.1389 156.635 24.3426 155.968 24.75C155.301 25.1574 154.764 25.7037 154.357 26.3889C153.968 27.0741 153.773 27.8333 153.773 28.6667C153.773 29.5 153.968 30.2593 154.357 30.9444C154.764 31.6296 155.301 32.1759 155.968 32.5833C156.635 32.9907 157.375 33.1944 158.19 33.1944ZM170.654 37V20.3333H174.987V22.1667C175.58 21.3889 176.311 20.7963 177.181 20.3889C178.052 19.9815 178.987 19.7778 179.987 19.7778C181.172 19.7778 182.274 20.0648 183.293 20.6389C184.33 21.1944 185.163 22.0185 185.793 23.1111C186.441 24.1852 186.765 25.4907 186.765 27.0278V37H181.931V27.6667C181.931 26.7407 181.654 25.9167 181.098 25.1944C180.543 24.4722 179.746 24.1111 178.709 24.1111C177.876 24.1111 177.126 24.3981 176.459 24.9722C175.811 25.5278 175.487 26.4074 175.487 27.6111V37H170.654ZM198.273 37.5556C196.625 37.5556 195.116 37.1574 193.746 36.3611C192.375 35.5648 191.283 34.4907 190.468 33.1389C189.672 31.787 189.273 30.2963 189.273 28.6667C189.273 27.0185 189.672 25.5278 190.468 24.1944C191.283 22.8426 192.375 21.7685 193.746 20.9722C195.116 20.1759 196.625 19.7778 198.273 19.7778C199.94 19.7778 201.449 20.1759 202.801 20.9722C204.172 21.7685 205.255 22.8426 206.051 24.1944C206.866 25.5278 207.273 27.0185 207.273 28.6667C207.273 30.2963 206.866 31.787 206.051 33.1389C205.255 34.4907 204.172 35.5648 202.801 36.3611C201.449 37.1574 199.94 37.5556 198.273 37.5556ZM198.273 33.2222C199.107 33.2222 199.857 33.0185 200.523 32.6111C201.209 32.2037 201.746 31.6574 202.135 30.9722C202.542 30.2685 202.746 29.5 202.746 28.6667C202.746 27.8148 202.542 27.0463 202.135 26.3611C201.746 25.6759 201.209 25.1296 200.523 24.7222C199.857 24.3148 199.107 24.1111 198.273 24.1111C197.44 24.1111 196.681 24.3148 195.996 24.7222C195.329 25.1296 194.792 25.6759 194.385 26.3611C193.996 27.0463 193.801 27.8148 193.801 28.6667C193.801 29.5 193.996 30.2685 194.385 30.9722C194.792 31.6574 195.329 32.2037 195.996 32.6111C196.681 33.0185 197.44 33.2222 198.273 33.2222ZM211.231 37V24.1667H208.12V20.3333H211.314V14.7778H215.981V20.3333H219.286V24.1667H216.064V37H211.231ZM224.786 27.8333C224.786 26.4815 224.962 25.3426 225.314 24.4167C225.666 23.4907 226.073 22.6852 226.536 22C226.999 21.2963 227.407 20.6389 227.759 20.0278C228.111 19.4167 228.286 18.7685 228.286 18.0833C228.286 17.3241 228.036 16.7593 227.536 16.3889C227.055 16.0185 226.416 15.8333 225.62 15.8333C224.749 15.8333 223.99 16.0463 223.342 16.4722C222.712 16.8981 222.194 17.3519 221.786 17.8333V13C222.435 12.5185 223.129 12.1481 223.87 11.8889C224.611 11.6296 225.435 11.5 226.342 11.5C227.657 11.5 228.796 11.7593 229.759 12.2778C230.722 12.7963 231.462 13.5093 231.981 14.4167C232.518 15.3241 232.786 16.3704 232.786 17.5556C232.786 18.6667 232.592 19.6574 232.203 20.5278C231.814 21.3796 231.351 22.1759 230.814 22.9167C230.277 23.6574 229.777 24.4167 229.314 25.1944C228.87 25.9722 228.583 26.8519 228.453 27.8333H224.786ZM226.62 37.5556C225.805 37.5556 225.111 37.2778 224.536 36.7222C223.981 36.1481 223.703 35.4537 223.703 34.6389C223.703 33.8241 223.981 33.1389 224.536 32.5833C225.111 32.0093 225.805 31.7222 226.62 31.7222C227.435 31.7222 228.12 32.0093 228.675 32.5833C229.249 33.1389 229.536 33.8241 229.536 34.6389C229.536 35.4537 229.249 36.1481 228.675 36.7222C228.12 37.2778 227.435 37.5556 226.62 37.5556Z" fill="#4C6EF5"/>
<path d="M26.4706 5.9597L8.75247 9.10064L18.1753 20.859C28.48 20.5807 33.1043 19.5198 39.5981 14.6577L26.4706 5.9597Z" fill="#EDF2FF"/>
<path d="M26.4706 5.9597L8.75247 9.10064L18.1753 20.859C28.48 20.5807 33.1043 19.5198 39.5981 14.6577L26.4706 5.9597Z" fill="#EDF2FF"/>
<path fill-rule="evenodd" clip-rule="evenodd" d="M26.2878 4.9288C26.5524 4.8819 26.8249 4.93851 27.0489 5.08692L40.1764 13.7849C40.4602 13.973 40.6349 14.2873 40.6446 14.6276C40.6544 14.9679 40.4981 15.2917 40.2256 15.4958C36.904 17.9828 34.0087 19.5346 30.597 20.4858C27.2117 21.4297 23.3729 21.766 18.2036 21.9056C17.876 21.9145 17.5632 21.7695 17.3583 21.5138L7.93546 9.75537C7.70429 9.4669 7.64238 9.07791 7.77256 8.73193C7.90274 8.38595 8.20573 8.13426 8.56971 8.06974L26.2878 4.9288ZM10.6734 9.82342L18.6663 19.7976C23.5287 19.6504 27.0145 19.3108 30.0346 18.4688C32.7327 17.7165 35.1003 16.5511 37.7601 14.6958L26.2412 7.06367L10.6734 9.82342Z" fill="#3B5BDB"/>
<path d="M45.4773 28.51L39.6786 14.8188C33.174 19.4142 28.5065 20.7019 18.4169 20.7785L15.276 42.1208L44.4303 33.3423C46.2021 32.4563 46.3693 30.7487 45.4773 28.51Z" fill="#91A7FF"/>
<path d="M45.4773 28.51L39.6786 14.8188C33.174 19.4142 28.5065 20.7019 18.4169 20.7785L15.276 42.1208L44.4303 33.3423C46.2021 32.4563 46.3693 30.7487 45.4773 28.51Z" fill="#91A7FF"/>
<path fill-rule="evenodd" clip-rule="evenodd" d="M39.9655 13.8119C40.2702 13.8987 40.5192 14.1187 40.6427 14.4104L46.4414 28.1017C46.4443 28.1086 46.4471 28.1155 46.4499 28.1225C46.9279 29.322 47.186 30.5264 46.9821 31.6245C46.7649 32.7949 46.0494 33.7033 44.8985 34.2787C44.8451 34.3054 44.7894 34.3275 44.7322 34.3448L15.5778 43.1233C15.2348 43.2266 14.8629 43.1473 14.5917 42.9132C14.3206 42.6792 14.188 42.3227 14.2401 41.9683L17.3811 20.6261C17.4563 20.1152 17.8926 19.7355 18.4089 19.7315C23.4198 19.6935 27.0012 19.3539 30.1103 18.4849C33.2023 17.6206 35.8867 16.2158 39.0745 13.9637C39.3333 13.7809 39.6608 13.725 39.9655 13.8119ZM19.3226 21.8152L16.5517 40.6432L44.036 32.3676C44.6034 32.0636 44.8406 31.688 44.9234 31.2423C45.0227 30.7073 44.9194 29.9418 44.5088 28.9078L39.2153 16.4093C36.3297 18.3441 33.6959 19.6569 30.674 20.5015C27.5025 21.388 23.9563 21.7438 19.3226 21.8152Z" fill="#3B5BDB"/>
<path d="M18.4974 20.9396L8.59137 9.26172L2.39003 23.7584C1.68353 25.6197 1.75988 26.6272 2.87325 28.349L12.6988 40.8322C13.7597 41.7734 14.4998 42.23 15.437 41.9597L18.4974 20.9396Z" fill="#3B5BDB"/>
<path d="M18.4974 20.9396L8.59137 9.26172L2.39003 23.7584C1.68353 25.6197 1.75988 26.6272 2.87325 28.349L12.6988 40.8322C13.7597 41.7734 14.4998 42.23 15.437 41.9597L18.4974 20.9396Z" fill="#3B5BDB"/>
<path fill-rule="evenodd" clip-rule="evenodd" d="M8.43529 8.22644C8.79399 8.17236 9.15512 8.30781 9.38979 8.58444L19.2958 20.2623C19.4902 20.4914 19.5768 20.7931 19.5335 21.0904L16.4731 42.1105C16.4139 42.5173 16.1221 42.8518 15.7272 42.9657C14.1918 43.4085 13.0455 42.5394 12.0039 41.6154C11.9573 41.574 11.9146 41.5287 11.876 41.4797L2.05054 28.9965C2.03051 28.9711 2.01167 28.9447 1.99408 28.9175C1.39841 27.9963 1.00126 27.1491 0.9074 26.2102C0.813737 25.2731 1.03562 24.3763 1.41119 23.3868C1.41632 23.3733 1.42174 23.3599 1.42743 23.3466L7.62877 8.84994C7.77144 8.51642 8.07659 8.28051 8.43529 8.22644ZM8.88812 11.23L3.36134 24.1498C3.03653 25.0099 2.9451 25.5429 2.99098 26.0019C3.03624 26.4547 3.22814 26.9625 3.72667 27.7404L13.4627 40.1099C13.9551 40.5417 14.2864 40.7754 14.5346 40.8912L17.3933 21.2564L8.88812 11.23Z" fill="#3B5BDB"/>
<path d="M27.0993 15.8782L25.281 13.7239L22.6958 14.2235L24.514 16.3778L22.1629 16.8322L17.3699 11.1533L19.7211 10.6989L21.4697 12.7707L24.0549 12.2711L22.3063 10.1993L24.6575 9.74494L29.4505 15.4238L27.0993 15.8782Z" fill="#4C6EF5"/>
</svg>
